<mxfile host="app.diagrams.net" modified="2024-03-08T09:52:54.487Z" agent="Mozilla/5.0 (Windows NT 10.0; Win64; x64) AppleWebKit/537.36 (KHTML, like Gecko) Chrome/122.0.0.0 Safari/537.36" etag="ptiU1ljjTqlt3QxJg_kp" version="24.0.2" type="device">
  <diagram name="Page-1" id="13e1069c-82ec-6db2-03f1-153e76fe0fe0">
    <mxGraphModel dx="1752" dy="321" grid="1" gridSize="10" guides="1" tooltips="1" connect="1" arrows="1" fold="1" page="1" pageScale="1" pageWidth="1100" pageHeight="850" background="none" math="0" shadow="0">
      <root>
        <mxCell id="0" />
        <mxCell id="1" parent="0" />
        <mxCell id="LC55XflvvJYrsTOKeoMi-250" value="" style="rounded=0;whiteSpace=wrap;html=1;" parent="1" vertex="1">
          <mxGeometry x="-960" y="300" width="590" height="410" as="geometry" />
        </mxCell>
        <mxCell id="LC55XflvvJYrsTOKeoMi-261" value="" style="rounded=0;whiteSpace=wrap;html=1;" parent="1" vertex="1">
          <mxGeometry x="-840" y="640" width="260" height="60" as="geometry" />
        </mxCell>
        <mxCell id="LC55XflvvJYrsTOKeoMi-193" value="" style="rounded=0;whiteSpace=wrap;html=1;strokeWidth=0.5;" parent="1" vertex="1">
          <mxGeometry x="-840" y="340" width="450" height="150" as="geometry" />
        </mxCell>
        <mxCell id="7baba1c4bc27f4b0-2" value="Program" style="shape=umlLifeline;perimeter=lifelinePerimeter;whiteSpace=wrap;html=1;container=1;collapsible=0;recursiveResize=0;outlineConnect=0;rounded=1;shadow=0;comic=0;labelBackgroundColor=none;strokeWidth=1;fontFamily=Verdana;fontSize=12;align=center;" parent="1" vertex="1">
          <mxGeometry x="-650" y="160" width="100" height="580" as="geometry" />
        </mxCell>
        <mxCell id="7baba1c4bc27f4b0-10" value="" style="html=1;points=[];perimeter=orthogonalPerimeter;rounded=0;shadow=0;comic=0;labelBackgroundColor=none;strokeWidth=1;fontFamily=Verdana;fontSize=12;align=center;" parent="7baba1c4bc27f4b0-2" vertex="1">
          <mxGeometry x="45" y="160" width="10" height="160" as="geometry" />
        </mxCell>
        <mxCell id="LC55XflvvJYrsTOKeoMi-241" value="" style="html=1;points=[];perimeter=orthogonalPerimeter;rounded=0;shadow=0;comic=0;labelBackgroundColor=none;strokeWidth=1;fontFamily=Verdana;fontSize=12;align=center;" parent="7baba1c4bc27f4b0-2" vertex="1">
          <mxGeometry x="50" y="280" width="10" height="40" as="geometry" />
        </mxCell>
        <mxCell id="LC55XflvvJYrsTOKeoMi-242" value="" style="html=1;points=[];perimeter=orthogonalPerimeter;rounded=0;shadow=0;comic=0;labelBackgroundColor=none;strokeWidth=1;fontFamily=Verdana;fontSize=12;align=center;" parent="7baba1c4bc27f4b0-2" vertex="1">
          <mxGeometry x="45" y="350" width="10" height="60" as="geometry" />
        </mxCell>
        <mxCell id="LC55XflvvJYrsTOKeoMi-253" value="" style="html=1;points=[];perimeter=orthogonalPerimeter;rounded=0;shadow=0;comic=0;labelBackgroundColor=none;strokeWidth=1;fontFamily=Verdana;fontSize=12;align=center;" parent="7baba1c4bc27f4b0-2" vertex="1">
          <mxGeometry x="45" y="430" width="10" height="80" as="geometry" />
        </mxCell>
        <mxCell id="7baba1c4bc27f4b0-3" value="Data" style="shape=umlLifeline;perimeter=lifelinePerimeter;whiteSpace=wrap;html=1;container=1;collapsible=0;recursiveResize=0;outlineConnect=0;rounded=1;shadow=0;comic=0;labelBackgroundColor=none;strokeWidth=1;fontFamily=Verdana;fontSize=12;align=center;" parent="1" vertex="1">
          <mxGeometry x="-490" y="160" width="100" height="580" as="geometry" />
        </mxCell>
        <mxCell id="7baba1c4bc27f4b0-13" value="" style="html=1;points=[];perimeter=orthogonalPerimeter;rounded=0;shadow=0;comic=0;labelBackgroundColor=none;strokeWidth=1;fontFamily=Verdana;fontSize=12;align=center;" parent="7baba1c4bc27f4b0-3" vertex="1">
          <mxGeometry x="45" y="90" width="10" height="490" as="geometry" />
        </mxCell>
        <mxCell id="7baba1c4bc27f4b0-11" value="Enter name" style="html=1;verticalAlign=bottom;endArrow=block;labelBackgroundColor=none;fontFamily=Verdana;fontSize=12;edgeStyle=elbowEdgeStyle;elbow=vertical;exitX=0.874;exitY=0.001;exitDx=0;exitDy=0;exitPerimeter=0;" parent="1" edge="1">
          <mxGeometry relative="1" as="geometry">
            <mxPoint x="-736.26" y="320.26" as="sourcePoint" />
            <mxPoint x="-605" y="320" as="targetPoint" />
            <Array as="points">
              <mxPoint x="-670" y="320" />
            </Array>
          </mxGeometry>
        </mxCell>
        <mxCell id="7baba1c4bc27f4b0-41" value="Note" style="shape=note;whiteSpace=wrap;html=1;size=14;verticalAlign=top;align=left;spacingTop=-6;rounded=0;shadow=0;comic=0;labelBackgroundColor=none;strokeWidth=1;fontFamily=Verdana;fontSize=12" parent="1" vertex="1">
          <mxGeometry x="-650" y="110" width="100" height="35" as="geometry" />
        </mxCell>
        <mxCell id="7baba1c4bc27f4b0-42" value="Struct&lt;br&gt;Magic Number" style="shape=note;whiteSpace=wrap;html=1;size=14;verticalAlign=top;align=left;spacingTop=-6;rounded=0;shadow=0;comic=0;labelBackgroundColor=none;strokeWidth=1;fontFamily=Verdana;fontSize=12" parent="1" vertex="1">
          <mxGeometry x="-490" y="110" width="100" height="35" as="geometry" />
        </mxCell>
        <mxCell id="LC55XflvvJYrsTOKeoMi-77" value="Add_player()" style="html=1;verticalAlign=bottom;endArrow=block;labelBackgroundColor=none;fontFamily=Verdana;fontSize=12;edgeStyle=elbowEdgeStyle;elbow=vertical;exitX=1.004;exitY=1.001;exitDx=0;exitDy=0;exitPerimeter=0;entryX=-0.039;entryY=0.419;entryDx=0;entryDy=0;entryPerimeter=0;" parent="1" edge="1">
          <mxGeometry relative="1" as="geometry">
            <mxPoint x="-594.96" y="550.15" as="sourcePoint" />
            <mxPoint x="-445.3899999999999" y="550.17" as="targetPoint" />
            <Array as="points">
              <mxPoint x="-540" y="550" />
            </Array>
          </mxGeometry>
        </mxCell>
        <mxCell id="LC55XflvvJYrsTOKeoMi-116" value="Enter Number" style="html=1;verticalAlign=bottom;endArrow=block;labelBackgroundColor=none;fontFamily=Verdana;fontSize=12;edgeStyle=elbowEdgeStyle;elbow=vertical;exitX=0.874;exitY=0.001;exitDx=0;exitDy=0;exitPerimeter=0;" parent="1" edge="1">
          <mxGeometry relative="1" as="geometry">
            <mxPoint x="-736" y="369" as="sourcePoint" />
            <mxPoint x="-605" y="369" as="targetPoint" />
            <Array as="points">
              <mxPoint x="-670" y="369" />
            </Array>
          </mxGeometry>
        </mxCell>
        <mxCell id="LC55XflvvJYrsTOKeoMi-194" value="Loop" style="rounded=1;whiteSpace=wrap;html=1;" parent="1" vertex="1">
          <mxGeometry x="-840" y="340" width="70" height="30" as="geometry" />
        </mxCell>
        <mxCell id="LC55XflvvJYrsTOKeoMi-200" value="&lt;font style=&quot;font-size: 8px;&quot;&gt;[Incorrect Number]&lt;/font&gt;" style="text;html=1;align=center;verticalAlign=middle;whiteSpace=wrap;rounded=0;" parent="1" vertex="1">
          <mxGeometry x="-832.5" y="370" width="75" height="30" as="geometry" />
        </mxCell>
        <mxCell id="LC55XflvvJYrsTOKeoMi-243" value="" style="endArrow=classic;html=1;rounded=0;entryX=0.809;entryY=0.276;entryDx=0;entryDy=0;entryPerimeter=0;exitX=-0.015;exitY=0.945;exitDx=0;exitDy=0;exitPerimeter=0;dashed=1;" parent="1" edge="1">
          <mxGeometry width="50" height="50" relative="1" as="geometry">
            <mxPoint x="-605.1499999999999" y="453" as="sourcePoint" />
            <mxPoint x="-735" y="453" as="targetPoint" />
          </mxGeometry>
        </mxCell>
        <mxCell id="LC55XflvvJYrsTOKeoMi-244" value="Prompt Geuss" style="edgeLabel;html=1;align=center;verticalAlign=middle;resizable=0;points=[];" parent="LC55XflvvJYrsTOKeoMi-243" connectable="0" vertex="1">
          <mxGeometry x="-0.0089" y="1" relative="1" as="geometry">
            <mxPoint y="-11" as="offset" />
          </mxGeometry>
        </mxCell>
        <mxCell id="LC55XflvvJYrsTOKeoMi-246" value="Total Guess++" style="html=1;verticalAlign=bottom;endArrow=block;labelBackgroundColor=none;fontFamily=Verdana;fontSize=12;edgeStyle=elbowEdgeStyle;elbow=vertical;exitX=1.004;exitY=1.001;exitDx=0;exitDy=0;exitPerimeter=0;entryX=-0.039;entryY=0.419;entryDx=0;entryDy=0;entryPerimeter=0;" parent="1" edge="1">
          <mxGeometry relative="1" as="geometry">
            <mxPoint x="-594.96" y="420.15" as="sourcePoint" />
            <mxPoint x="-445.3899999999999" y="420.16999999999996" as="targetPoint" />
            <Array as="points">
              <mxPoint x="-540" y="420" />
            </Array>
          </mxGeometry>
        </mxCell>
        <mxCell id="LC55XflvvJYrsTOKeoMi-248" value="" style="endArrow=classic;html=1;rounded=0;entryX=0.809;entryY=0.276;entryDx=0;entryDy=0;entryPerimeter=0;exitX=-0.015;exitY=0.945;exitDx=0;exitDy=0;exitPerimeter=0;dashed=1;" parent="1" edge="1">
          <mxGeometry width="50" height="50" relative="1" as="geometry">
            <mxPoint x="-605.1499999999999" y="568" as="sourcePoint" />
            <mxPoint x="-735" y="568" as="targetPoint" />
          </mxGeometry>
        </mxCell>
        <mxCell id="LC55XflvvJYrsTOKeoMi-249" value="Display result" style="edgeLabel;html=1;align=center;verticalAlign=middle;resizable=0;points=[];" parent="LC55XflvvJYrsTOKeoMi-248" connectable="0" vertex="1">
          <mxGeometry x="-0.0089" y="1" relative="1" as="geometry">
            <mxPoint y="-11" as="offset" />
          </mxGeometry>
        </mxCell>
        <mxCell id="LC55XflvvJYrsTOKeoMi-251" value="Loop" style="rounded=1;whiteSpace=wrap;html=1;" parent="1" vertex="1">
          <mxGeometry x="-960" y="300" width="70" height="30" as="geometry" />
        </mxCell>
        <mxCell id="LC55XflvvJYrsTOKeoMi-254" value="&lt;span style=&quot;font-size: 8px;&quot;&gt;[replay?]&lt;/span&gt;" style="text;html=1;align=center;verticalAlign=middle;whiteSpace=wrap;rounded=0;" parent="1" vertex="1">
          <mxGeometry x="-960" y="330" width="75" height="30" as="geometry" />
        </mxCell>
        <mxCell id="LC55XflvvJYrsTOKeoMi-257" value="" style="endArrow=classic;html=1;rounded=0;entryX=0.809;entryY=0.276;entryDx=0;entryDy=0;entryPerimeter=0;exitX=-0.015;exitY=0.945;exitDx=0;exitDy=0;exitPerimeter=0;dashed=1;" parent="1" edge="1">
          <mxGeometry width="50" height="50" relative="1" as="geometry">
            <mxPoint x="-605.1499999999999" y="598" as="sourcePoint" />
            <mxPoint x="-735" y="598" as="targetPoint" />
          </mxGeometry>
        </mxCell>
        <mxCell id="LC55XflvvJYrsTOKeoMi-258" value="Ask replay" style="edgeLabel;html=1;align=center;verticalAlign=middle;resizable=0;points=[];" parent="LC55XflvvJYrsTOKeoMi-257" connectable="0" vertex="1">
          <mxGeometry x="-0.0089" y="1" relative="1" as="geometry">
            <mxPoint y="-11" as="offset" />
          </mxGeometry>
        </mxCell>
        <mxCell id="LC55XflvvJYrsTOKeoMi-259" value="Yes" style="html=1;verticalAlign=bottom;endArrow=block;labelBackgroundColor=none;fontFamily=Verdana;fontSize=12;edgeStyle=elbowEdgeStyle;elbow=vertical;exitX=0.874;exitY=0.001;exitDx=0;exitDy=0;exitPerimeter=0;" parent="1" edge="1">
          <mxGeometry relative="1" as="geometry">
            <mxPoint x="-736" y="629" as="sourcePoint" />
            <mxPoint x="-605" y="629" as="targetPoint" />
            <Array as="points">
              <mxPoint x="-670" y="629" />
            </Array>
          </mxGeometry>
        </mxCell>
        <mxCell id="LC55XflvvJYrsTOKeoMi-260" value="No" style="html=1;verticalAlign=bottom;endArrow=block;labelBackgroundColor=none;fontFamily=Verdana;fontSize=12;edgeStyle=elbowEdgeStyle;elbow=vertical;exitX=0.874;exitY=0.001;exitDx=0;exitDy=0;exitPerimeter=0;" parent="1" edge="1">
          <mxGeometry relative="1" as="geometry">
            <mxPoint x="-736" y="669" as="sourcePoint" />
            <mxPoint x="-605" y="669" as="targetPoint" />
            <Array as="points">
              <mxPoint x="-670" y="669" />
            </Array>
          </mxGeometry>
        </mxCell>
        <mxCell id="LC55XflvvJYrsTOKeoMi-263" value="Break" style="rounded=1;whiteSpace=wrap;html=1;" parent="1" vertex="1">
          <mxGeometry x="-840" y="640" width="70" height="30" as="geometry" />
        </mxCell>
        <mxCell id="rsxKb637mrlOzX0PmAAM-3" value="&lt;font style=&quot;font-size: 9px;&quot;&gt;Generate_magic_number()&lt;/font&gt;" style="html=1;verticalAlign=bottom;endArrow=block;labelBackgroundColor=none;fontFamily=Verdana;fontSize=12;edgeStyle=elbowEdgeStyle;elbow=vertical;exitX=0.874;exitY=0.001;exitDx=0;exitDy=0;exitPerimeter=0;entryX=-0.127;entryY=0.022;entryDx=0;entryDy=0;entryPerimeter=0;" parent="1" target="7baba1c4bc27f4b0-13" edge="1">
          <mxGeometry relative="1" as="geometry">
            <mxPoint x="-596" y="260" as="sourcePoint" />
            <mxPoint x="-460" y="260" as="targetPoint" />
            <Array as="points">
              <mxPoint x="-530" y="260" />
            </Array>
          </mxGeometry>
        </mxCell>
        <mxCell id="rsxKb637mrlOzX0PmAAM-4" value="Check_guess()" style="html=1;verticalAlign=bottom;endArrow=block;labelBackgroundColor=none;fontFamily=Verdana;fontSize=12;edgeStyle=elbowEdgeStyle;elbow=vertical;exitX=1.004;exitY=1.001;exitDx=0;exitDy=0;exitPerimeter=0;entryX=-0.039;entryY=0.419;entryDx=0;entryDy=0;entryPerimeter=0;" parent="1" edge="1">
          <mxGeometry relative="1" as="geometry">
            <mxPoint x="-594.96" y="390.15" as="sourcePoint" />
            <mxPoint x="-445.3899999999999" y="390.16999999999996" as="targetPoint" />
            <Array as="points">
              <mxPoint x="-540" y="390" />
            </Array>
          </mxGeometry>
        </mxCell>
        <mxCell id="rsxKb637mrlOzX0PmAAM-6" value="" style="endArrow=classic;html=1;rounded=0;entryX=1;entryY=0.325;entryDx=0;entryDy=0;entryPerimeter=0;exitX=-0.015;exitY=0.945;exitDx=0;exitDy=0;exitPerimeter=0;dashed=1;" parent="1" target="LC55XflvvJYrsTOKeoMi-241" edge="1">
          <mxGeometry width="50" height="50" relative="1" as="geometry">
            <mxPoint x="-445.14999999999986" y="453" as="sourcePoint" />
            <mxPoint x="-575" y="453" as="targetPoint" />
          </mxGeometry>
        </mxCell>
        <mxCell id="rsxKb637mrlOzX0PmAAM-7" value="Incorrect" style="edgeLabel;html=1;align=center;verticalAlign=middle;resizable=0;points=[];" parent="rsxKb637mrlOzX0PmAAM-6" connectable="0" vertex="1">
          <mxGeometry x="-0.0089" y="1" relative="1" as="geometry">
            <mxPoint y="-11" as="offset" />
          </mxGeometry>
        </mxCell>
        <mxCell id="rsxKb637mrlOzX0PmAAM-8" value="" style="endArrow=classic;html=1;rounded=0;entryX=1;entryY=0.325;entryDx=0;entryDy=0;entryPerimeter=0;exitX=-0.073;exitY=0.537;exitDx=0;exitDy=0;exitPerimeter=0;dashed=1;" parent="1" source="7baba1c4bc27f4b0-13" edge="1">
          <mxGeometry width="50" height="50" relative="1" as="geometry">
            <mxPoint x="-450.14999999999986" y="513" as="sourcePoint" />
            <mxPoint x="-595" y="513" as="targetPoint" />
          </mxGeometry>
        </mxCell>
        <mxCell id="rsxKb637mrlOzX0PmAAM-9" value="Correct" style="edgeLabel;html=1;align=center;verticalAlign=middle;resizable=0;points=[];" parent="rsxKb637mrlOzX0PmAAM-8" connectable="0" vertex="1">
          <mxGeometry x="-0.0089" y="1" relative="1" as="geometry">
            <mxPoint y="-11" as="offset" />
          </mxGeometry>
        </mxCell>
        <mxCell id="RcDcgfqTU1pt_lAhyUBX-3" value="Player" style="shape=umlActor;verticalLabelPosition=bottom;verticalAlign=top;html=1;outlineConnect=0;" vertex="1" parent="1">
          <mxGeometry x="-757" y="145" width="30" height="60" as="geometry" />
        </mxCell>
        <mxCell id="RcDcgfqTU1pt_lAhyUBX-5" value="" style="html=1;points=[[0,0,0,0,5],[0,1,0,0,-5],[1,0,0,0,5],[1,1,0,0,-5]];perimeter=orthogonalPerimeter;outlineConnect=0;targetShapes=umlLifeline;portConstraint=eastwest;newEdgeStyle={&quot;curved&quot;:0,&quot;rounded&quot;:0};" vertex="1" parent="1">
          <mxGeometry x="-747" y="320" width="10" height="80" as="geometry" />
        </mxCell>
        <mxCell id="RcDcgfqTU1pt_lAhyUBX-7" value="" style="endArrow=none;dashed=1;html=1;rounded=0;" edge="1" parent="1" source="RcDcgfqTU1pt_lAhyUBX-5">
          <mxGeometry width="50" height="50" relative="1" as="geometry">
            <mxPoint x="-790" y="270" as="sourcePoint" />
            <mxPoint x="-740" y="220" as="targetPoint" />
          </mxGeometry>
        </mxCell>
      </root>
    </mxGraphModel>
  </diagram>
</mxfile>
